<svg width="50" height="52" viewBox="0 0 50 52" fill="none" xmlns="http://www.w3.org/2000/svg">
<ellipse cx="25" cy="26" rx="25" ry="26" fill="white"/>
<path d="M33 17.6562H29.6875C29.3958 15.4271 28.3437 14.3125 26.5312 14.3125C25.3646 14.3125 24.4844 14.5937 23.8906 15.1562C23.2969 15.7187 23 16.5573 23 17.6719C23 18.5052 23.3281 19.2865 23.9844 20.0156L31.0469 27.9531C32.349 29.4115 33 30.9792 33 32.6562V34.3437C33 36.1458 32.349 37.7083 31.0469 39.0312C29.7448 40.3437 28.1771 41 26.3438 41H23C20.7917 41 19.1302 40.4427 18.0156 39.3281C16.901 38.2135 16.3437 36.5521 16.3437 34.3437H19.6875C19.6667 34.5729 19.6563 34.7552 19.6563 34.8906C19.6563 35.7969 20.0052 36.4844 20.7031 36.9531C21.401 37.4219 22.1667 37.6563 23 37.6563C24.1875 37.6563 25.0417 37.3698 25.5625 36.7969C26.0833 36.224 26.3438 35.3906 26.3438 34.2969C26.3438 33.4531 26.0156 32.6719 25.3594 31.9531L18.2969 24.0469C16.9948 22.599 16.3437 21.0312 16.3437 19.3437V17.6562C16.3437 15.8437 16.9948 14.2812 18.2969 12.9687C19.599 11.6562 21.1667 11 23 11H26.3438C30.5104 11 32.7292 13.2187 33 17.6562Z" fill="#00ADB5"/>
</svg>
