<svg width="36" height="36" viewBox="0 0 36 36" fill="none" xmlns="http://www.w3.org/2000/svg">
<circle cx="18" cy="18" r="18" fill="#00ADB5"/>
<path d="M10.42 26.579C10.1395 26.5785 9.87206 26.4603 9.68299 26.253C9.49044 26.0475 9.39476 25.7695 9.41999 25.489L9.66499 22.795L20.983 11.481L24.52 15.017L13.205 26.33L10.511 26.575C10.48 26.578 10.449 26.579 10.42 26.579ZM25.226 14.31L21.69 10.774L23.811 8.65303C23.9986 8.46525 24.2531 8.35974 24.5185 8.35974C24.7839 8.35974 25.0384 8.46525 25.226 8.65303L27.347 10.774C27.5348 10.9616 27.6403 11.2161 27.6403 11.4815C27.6403 11.7469 27.5348 12.0015 27.347 12.189L25.227 14.309L25.226 14.31Z" fill="white"/>
</svg>
