<svg width="48" height="48" viewBox="0 0 48 48" fill="none" xmlns="http://www.w3.org/2000/svg">
<path d="M27.64 44H20.36C19.4202 44 18.6071 43.346 18.406 42.428L17.592 38.66C16.5061 38.1842 15.4764 37.5892 14.522 36.886L10.848 38.056C9.95196 38.3417 8.97793 37.9646 8.50796 37.15L4.85996 30.848C4.39513 30.033 4.55528 29.005 5.24596 28.37L8.09596 25.77C7.96635 24.5922 7.96635 23.4038 8.09596 22.226L5.24596 19.632C4.55426 18.9967 4.39405 17.9674 4.85996 17.152L8.49996 10.846C8.96993 10.0314 9.94396 9.65427 10.84 9.94L14.514 11.11C15.0021 10.7483 15.5102 10.4144 16.036 10.11C16.5406 9.82539 17.06 9.56769 17.592 9.338L18.408 5.574C18.6081 4.65594 19.4203 4.00099 20.36 4H27.64C28.5796 4.00099 29.3918 4.65594 29.592 5.574L30.416 9.34C30.9775 9.58703 31.5244 9.86616 32.054 10.176C32.5478 10.4616 33.0252 10.7748 33.484 11.114L37.16 9.944C38.0554 9.65934 39.0282 10.0363 39.498 10.85L43.138 17.156C43.6028 17.971 43.4426 18.999 42.752 19.634L39.902 22.234C40.0316 23.4118 40.0316 24.6002 39.902 25.778L42.752 28.378C43.4426 29.013 43.6028 30.041 43.138 30.856L39.498 37.162C39.0282 37.9757 38.0554 38.3527 37.16 38.068L33.484 36.898C33.0188 37.2406 32.5354 37.5577 32.036 37.848C31.5116 38.1518 30.9708 38.4262 30.416 38.67L29.592 42.428C29.391 43.3453 28.579 43.9992 27.64 44ZM15.24 32.458L16.88 33.658C17.2497 33.9303 17.635 34.1807 18.034 34.408C18.4094 34.6254 18.7959 34.823 19.192 35L21.058 35.818L21.972 40H26.032L26.946 35.816L28.812 34.998C29.6266 34.6388 30.3998 34.1921 31.118 33.666L32.76 32.466L36.842 33.766L38.872 30.25L35.706 27.364L35.93 25.34C36.0284 24.4547 36.0284 23.5613 35.93 22.676L35.706 20.652L38.874 17.76L36.842 14.242L32.76 15.542L31.118 14.342C30.3995 13.8134 29.6264 13.3635 28.812 13L26.946 12.182L26.032 8H21.972L21.054 12.184L19.192 13C18.7956 13.1741 18.409 13.3697 18.034 13.586C17.6374 13.8127 17.2541 14.0617 16.886 14.332L15.244 15.532L11.164 14.232L9.12996 17.76L12.296 20.642L12.072 22.668C11.9736 23.5533 11.9736 24.4467 12.072 25.332L12.296 27.356L9.12996 30.242L11.16 33.758L15.24 32.458ZM23.992 32C19.5737 32 15.992 28.4183 15.992 24C15.992 19.5817 19.5737 16 23.992 16C28.4102 16 31.992 19.5817 31.992 24C31.9864 28.416 28.408 31.9945 23.992 32ZM23.992 20C21.8068 20.0022 20.0277 21.7577 19.9964 23.9427C19.9651 26.1277 21.6931 27.9334 23.8773 27.9982C26.0616 28.0631 27.8936 26.363 27.992 24.18V24.98V24C27.992 21.7909 26.2011 20 23.992 20Z" fill="#393E46"/>
</svg>
