<svg width="40" height="40" viewBox="0 0 40 40" fill="none" xmlns="http://www.w3.org/2000/svg">
<path d="M15 16C15 13.2386 17.2386 11 20 11C22.7614 11 25 13.2386 25 16C25 18.7614 22.7614 21 20 21C17.2386 21 15 18.7614 15 16ZM20 19C21.6569 19 23 17.6569 23 16C23 14.3431 21.6569 13 20 13C18.3431 13 17 14.3431 17 16C17 17.6569 18.3431 19 20 19Z" fill="#393E46"/>
<path d="M14.3431 24.3431C12.8429 25.8434 12 27.8783 12 30H14C14 28.4087 14.6321 26.8826 15.7574 25.7574C16.8826 24.6321 18.4087 24 20 24C21.5913 24 23.1174 24.6321 24.2426 25.7574C25.3679 26.8826 26 28.4087 26 30H28C28 27.8783 27.1571 25.8434 25.6569 24.3431C24.1566 22.8429 22.1217 22 20 22C17.8783 22 15.8434 22.8429 14.3431 24.3431Z" fill="#393E46"/>
<circle cx="20" cy="20" r="19" stroke="#393E46" stroke-width="2"/>
</svg>
